<svg id="visual" viewBox="0 0 900 450" width="900" height="450" xmlns="http://www.w3.org/2000/svg" xmlns:xlink="http://www.w3.org/1999/xlink" version="1.1"><rect x="0" y="0" width="900" height="450" fill="#ffffff"></rect><path d="M0 289L21.5 293.5C43 298 86 307 128.8 308.2C171.7 309.3 214.3 302.7 257.2 306C300 309.3 343 322.7 385.8 325.5C428.7 328.3 471.3 320.7 514.2 311.2C557 301.7 600 290.3 642.8 287.7C685.7 285 728.3 291 771.2 290C814 289 857 281 878.5 277L900 273L900 451L878.5 451C857 451 814 451 771.2 451C728.3 451 685.7 451 642.8 451C600 451 557 451 514.2 451C471.3 451 428.7 451 385.8 451C343 451 300 451 257.2 451C214.3 451 171.7 451 128.8 451C86 451 43 451 21.5 451L0 451Z" fill="#0066ff"></path><path d="M0 352L21.5 352.5C43 353 86 354 128.8 351.7C171.7 349.3 214.3 343.7 257.2 339.3C300 335 343 332 385.8 331.7C428.7 331.3 471.3 333.7 514.2 338C557 342.3 600 348.7 642.8 348.3C685.7 348 728.3 341 771.2 337.2C814 333.3 857 332.7 878.5 332.3L900 332L900 451L878.5 451C857 451 814 451 771.2 451C728.3 451 685.7 451 642.8 451C600 451 557 451 514.2 451C471.3 451 428.7 451 385.8 451C343 451 300 451 257.2 451C214.3 451 171.7 451 128.8 451C86 451 43 451 21.5 451L0 451Z" fill="#c43ed5"></path><path d="M0 345L21.5 348.2C43 351.3 86 357.7 128.8 364C171.7 370.3 214.3 376.7 257.2 373.8C300 371 343 359 385.8 353.8C428.7 348.7 471.3 350.3 514.2 351.2C557 352 600 352 642.8 353.5C685.7 355 728.3 358 771.2 360.7C814 363.3 857 365.7 878.5 366.8L900 368L900 451L878.5 451C857 451 814 451 771.2 451C728.3 451 685.7 451 642.8 451C600 451 557 451 514.2 451C471.3 451 428.7 451 385.8 451C343 451 300 451 257.2 451C214.3 451 171.7 451 128.8 451C86 451 43 451 21.5 451L0 451Z" fill="#ff0e95"></path><path d="M0 371L21.5 370.2C43 369.3 86 367.7 128.8 367.2C171.7 366.7 214.3 367.3 257.2 370.5C300 373.7 343 379.3 385.8 385.3C428.7 391.3 471.3 397.7 514.2 394C557 390.3 600 376.7 642.8 370.5C685.7 364.3 728.3 365.7 771.2 367.7C814 369.7 857 372.3 878.5 373.7L900 375L900 451L878.5 451C857 451 814 451 771.2 451C728.3 451 685.7 451 642.8 451C600 451 557 451 514.2 451C471.3 451 428.7 451 385.8 451C343 451 300 451 257.2 451C214.3 451 171.7 451 128.8 451C86 451 43 451 21.5 451L0 451Z" fill="#ff4054"></path><path d="M0 400L21.5 400.7C43 401.3 86 402.7 128.8 402.5C171.7 402.3 214.3 400.7 257.2 403.7C300 406.7 343 414.3 385.8 413.5C428.7 412.7 471.3 403.3 514.2 401C557 398.7 600 403.3 642.8 405.7C685.7 408 728.3 408 771.2 408.7C814 409.3 857 410.7 878.5 411.3L900 412L900 451L878.5 451C857 451 814 451 771.2 451C728.3 451 685.7 451 642.8 451C600 451 557 451 514.2 451C471.3 451 428.7 451 385.8 451C343 451 300 451 257.2 451C214.3 451 171.7 451 128.8 451C86 451 43 451 21.5 451L0 451Z" fill="#f7770f"></path></svg>